<?xml version="1.0" standalone="no"?>
<!DOCTYPE svg PUBLIC "-//W3C//DTD SVG 20010904//EN"
 "http://www.w3.org/TR/2001/REC-SVG-20010904/DTD/svg10.dtd">
<svg version="1.0" xmlns="http://www.w3.org/2000/svg"
 width="730.000000pt" height="730.000000pt" viewBox="0 0 730.000000 730.000000"
 preserveAspectRatio="xMidYMid meet">
<metadata>
Created by potrace 1.14, written by Peter Selinger 2001-2017
</metadata>
<g transform="translate(0.000000,730.000000) scale(0.100000,-0.100000)"
fill="#000000" stroke="none">
<path d="M3573 7070 c-40 -45 -73 -78 -73 -75 0 3 -8 -3 -18 -12 -11 -10 -18
-20 -17 -23 0 -3 -12 -17 -27 -32 -15 -15 -28 -25 -28 -23 0 8 -105 -100 -120
-122 -8 -13 -18 -23 -23 -23 -11 0 -87 -81 -87 -93 0 -4 -4 -5 -10 -2 -5 3
-10 0 -10 -8 0 -8 -15 -26 -33 -40 -41 -31 -167 -159 -167 -169 0 -5 -4 -8
-10 -8 -9 0 -98 -88 -135 -135 -11 -14 -23 -25 -28 -25 -4 0 -33 -27 -65 -60
-31 -34 -76 -80 -100 -103 -24 -23 -121 -120 -215 -215 -141 -143 -417 -418
-499 -498 -121 -119 -1575 -1583 -1610 -1622 -26 -29 -48 -50 -48 -48 0 4 -52
-47 -84 -83 l-19 -21 159 -160 c87 -88 313 -314 501 -502 188 -188 339 -346
336 -351 -3 -6 -2 -8 3 -4 5 3 82 -69 171 -159 89 -90 160 -164 156 -164 -3 0
7 -10 23 -22 16 -12 50 -45 76 -73 26 -27 52 -54 58 -60 105 -96 628 -631 623
-639 -3 -6 -3 -8 1 -4 4 3 19 -3 34 -15 44 -37 127 -129 125 -138 -2 -5 3 -9
10 -9 17 0 159 -144 151 -153 -4 -4 0 -7 8 -7 19 0 154 -136 150 -151 -1 -6 1
-8 6 -6 10 7 164 -148 155 -156 -3 -4 0 -7 7 -7 17 0 400 -382 393 -393 -2 -4
0 -6 5 -5 5 2 68 -55 140 -127 175 -175 208 -205 224 -205 7 0 117 104 243
231 127 128 252 252 279 278 27 25 54 52 60 59 55 62 468 472 476 472 5 0 10
4 10 10 0 5 548 559 1218 1231 669 671 1219 1225 1221 1231 2 8 -1296 1317
-1832 1846 -54 53 -207 206 -340 340 -1071 1076 -1328 1332 -1339 1332 -7 0
-46 -36 -85 -80z m196 -204 c18 -17 42 -41 53 -52 98 -108 3169 -3164 3180
-3164 3 0 4 -9 1 -20 -3 -11 -10 -20 -15 -20 -5 0 -6 -4 -3 -10 3 -5 2 -10 -3
-10 -13 0 -750 -738 -744 -745 3 -3 1 -5 -5 -5 -15 0 -163 -147 -156 -154 4
-3 2 -6 -4 -6 -12 0 -213 -198 -213 -211 0 -5 -5 -9 -11 -9 -6 0 -82 -71 -169
-157 -87 -87 -182 -182 -212 -211 -29 -29 -71 -72 -94 -95 -22 -23 -56 -56
-76 -74 -20 -17 -34 -34 -31 -37 4 -3 -1 -6 -10 -6 -9 0 -17 -4 -17 -9 0 -12
-938 -951 -950 -951 -6 0 -10 -4 -10 -9 0 -13 -47 -60 -54 -54 -3 4 -6 2 -6
-4 0 -5 -11 -22 -25 -37 -14 -15 -25 -25 -25 -21 0 3 -17 -14 -37 -37 -21 -24
-42 -46 -47 -50 -19 -13 -344 -338 -338 -338 11 0 -52 -52 -73 -60 -19 -7
-189 158 -1556 1521 -844 841 -1594 1589 -1666 1661 -73 73 -133 136 -133 140
0 11 479 488 490 488 6 0 10 4 10 9 0 13 56 71 69 71 6 0 10 3 8 8 -2 8 79 92
85 87 2 -2 12 9 23 25 11 16 28 31 38 34 11 2 17 8 15 13 -3 4 46 58 109 119
62 61 113 108 113 106 0 -2 15 14 33 36 17 23 38 41 45 41 6 1 12 9 12 18 0 9
2 14 5 11 5 -5 75 59 75 68 0 2 15 18 34 36 49 46 131 127 168 166 18 17 36
32 40 32 4 0 8 4 8 9 0 13 55 67 75 75 9 3 13 10 10 16 -3 5 -2 10 3 10 6 0
122 113 258 251 137 138 255 256 261 262 7 7 313 312 680 678 l668 667 40 -36
c22 -20 55 -50 74 -66z"/>
<path d="M3547 6068 c-246 -245 -653 -638 -687 -665 -41 -33 -50 -44 -44 -55
3 -4 201 -8 440 -8 l434 0 0 425 c0 264 -4 425 -10 425 -5 0 -65 -55 -133
-122z"/>
<path d="M2087 4611 c-6 -2 -14 -7 -17 -10 -3 -3 -22 -21 -43 -39 -21 -17 -36
-32 -33 -32 6 0 -49 -55 -81 -79 -14 -12 -24 -21 -21 -21 3 0 -41 -46 -96
-103 -56 -57 -104 -101 -108 -99 -5 2 -8 -4 -8 -12 0 -9 -7 -16 -15 -16 -8 0
-15 -4 -15 -8 0 -12 -78 -91 -84 -85 -2 3 -10 -5 -16 -18 -16 -29 -68 -79 -82
-79 -6 0 -9 -2 -6 -5 7 -7 -165 -182 -174 -177 -5 2 -8 -1 -8 -6 0 -6 -38 -48
-85 -94 -47 -47 -85 -83 -85 -81 0 9 -27 -23 -39 -46 -12 -22 8 -44 452 -487
l464 -464 516 517 c811 814 1355 1365 1388 1405 l31 38 -911 2 c-501 2 -917 1
-924 -1z"/>
<path d="M5216 4478 c-9 -13 -20 -28 -24 -33 -4 -6 -23 -22 -42 -36 -49 -37
-230 -219 -230 -232 0 -6 -2 -8 -5 -5 -7 7 -335 -321 -335 -335 0 -6 -3 -8 -6
-4 -4 3 -31 -17 -62 -46 -84 -80 -181 -177 -177 -177 3 0 -19 -23 -48 -50
-126 -122 -164 -160 -158 -160 3 -1 -5 -7 -19 -15 -14 -8 -22 -14 -17 -15 4 0
-6 -12 -23 -27 -17 -16 -73 -69 -125 -120 -52 -50 -95 -89 -95 -86 0 2 -16
-12 -35 -33 -19 -20 -35 -41 -35 -47 0 -6 -2 -8 -5 -6 -2 3 -70 -59 -151 -138
-81 -79 -151 -143 -156 -143 -4 0 -8 -7 -8 -15 0 -8 -4 -15 -9 -15 -5 0 -44
-35 -88 -77 l-78 -78 1020 -3 1020 -3 452 458 c249 252 452 460 453 463 0 4
-970 978 -994 998 -2 1 -11 -8 -20 -20z"/>
<path d="M3550 1393 l0 -526 58 54 c397 375 940 887 992 936 l65 62 -557 1
-558 0 0 -527z"/>
</g>
</svg>
